<?xml version="1.0" encoding="UTF-8"?>
<!DOCTYPE svg PUBLIC "-//W3C//DTD SVG 1.1//EN" "http://www.w3.org/Graphics/SVG/1.1/DTD/svg11.dtd">
<!--Generated by Origin-->
<svg xmlns="http://www.w3.org/2000/svg" xmlns:xlink="http://www.w3.org/1999/xlink" viewBox="0,0 2567,1692" width="26.739583in" height="17.625000in">
	<defs>
		<mask id="Cp_1">
			<rect x="296" y="49" width="2194" height="1368" fill="white"/>
		</mask>
	</defs>
	<g mask="url(#Cp_1)">
		<rect x="0" y="0" width="2567" height="1692" visibility="hidden" fill="none" opacity="0"/>
		<polyline points="298,229 306,228 314,227 323,226 331,225 339,224 347,222 355,221 364,219 372,218 380,215 388,214 396,212 405,210 413,207 421,205 429,202 437,200 446,197 454,195 462,193 470,191 478,189 487,189 495,188 503,190 511,191 519,193 527,195 536,198 544,202 552,207 560,213 568,220 576,225 585,229 593,232 601,235 609,236 617,237 625,234 634,231 642,227 650,224 658,222 666,220 674,219 683,218 691,217 699,214 707,209 715,205 723,201 732,198 740,195 748,194 756,192 764,193 772,194 780,196 789,200 797,207 805,218 813,234 821,249 829,260 838,262 846,268 854,272 862,273 870,282 878,298 886,320 895,351 903,382 911,418 919,443 927,465 935,479 943,494 952,505 960,520 968,536 976,556 984,576 992,593 1000,601 1008,606 1017,604 1025,602 1033,594 1041,588 1049,582 1057,583 1065,585 1073,589 1082,589 1090,590 1098,584 1106,579 1114,572 1122,570 1130,564 1138,563 1147,559 1155,554 1163,541 1171,525 1179,505 1187,487 1195,467 1203,451 1212,437 1220,424 1228,411 1236,399 1244,388 1252,380 1260,372 1268,368 1276,363 1285,363 1293,365 1301,373 1309,383 1317,398 1325,405 1333,405 1341,405 1349,409 1358,415 1366,422 1374,427 1382,433 1390,437 1398,442 1406,448 1414,454 1422,457 1431,460 1439,461 1447,463 1455,463 1463,463 1471,463 1479,463 1487,463 1495,467 1503,465 1512,462 1520,455 1528,447 1536,441 1544,438 1552,437 1560,442 1568,450 1576,461 1584,481 1593,514 1601,556 1609,610 1617,662 1625,706 1633,738 1641,759 1649,767 1657,767 1665,760 1673,747 1682,731 1690,714 1698,697 1706,680 1714,664 1722,647 1730,633 1738,620 1746,610 1754,602 1763,598 1771,600 1779,607 1787,621 1795,641 1803,669 1811,701 1819,741 1827,781 1835,820 1843,852 1851,885 1860,916 1868,944 1876,964 1884,980 1892,991 1900,1001 1908,1003 1916,997 1924,983 1932,966 1940,947 1949,927 1957,910 1965,895 1973,882 1981,869 1989,858 1997,847 2005,836 2013,823 2021,810 2029,798 2038,786 2046,775 2054,766 2062,759 2070,751 2078,748 2086,746 2094,747 2102,754 2110,771 2118,801 2127,845 2135,897 2143,954 2151,991 2159,994 2167,974 2175,954 2183,948 2191,955 2199,959 2207,978 2215,998 2224,1016 2232,1031 2240,1047 2248,1056 2256,1056 2264,1050 2272,1046 2280,1040 2288,1031 2296,1028 2304,1019 2313,1006 2321,1001 2329,995 2337,987 2345,980 2353,985 2361,992 2369,999 2377,1013 2385,1036 2393,1065 2402,1098 2410,1130 2418,1163 2426,1197 2434,1237 2442,1277 2450,1310 2458,1309 2466,1313 2474,1307 2482,1292 2491,1278" style="stroke: #00A0FF;stroke-width: 29;stroke-linecap:round;stroke-linejoin:round" fill="none"/>
	</g>
	<polyline points="296,1416 2489,1416" style="stroke: black;stroke-width: 13;stroke-linecap:square;stroke-linejoin:round" fill="none"/>
	<polyline points="296,1416 296,49" style="stroke: black;stroke-width: 13;stroke-linecap:square;stroke-linejoin:round" fill="none"/>
	<text x="0" dominant-baseline="auto" y="0" fill="black" font-family="Arial,'MS PGothic',SimSun" font-size="200" font-weight="400" transform="matrix(-1.83697e-16 -1 0.999999 -1.83697e-16 196 1104)">
		<tspan x="0" style="font-kerning:none">Intensity</tspan>
	</text>
	<text x="865" dominant-baseline="auto" y="1650" fill="black" font-family="Arial,'MS PGothic',SimSun" font-size="200" font-weight="400">
		<tspan x="865" style="font-kerning:none">Wavelength</tspan>
	</text>
</svg>

