<?xml version="1.0" encoding="UTF-8" standalone="no"?>
<!--Generated by Origin-->

<svg
   viewBox="0,0 2567,1692"
   width="26.739583in"
   height="17.625000in"
   version="1.1"
   id="svg129339"
   sodipodi:docname="Spektri_molemmat.svg"
   xml:space="preserve"
   inkscape:version="1.2.2 (732a01da63, 2022-12-09)"
   xmlns:inkscape="http://www.inkscape.org/namespaces/inkscape"
   xmlns:sodipodi="http://sodipodi.sourceforge.net/DTD/sodipodi-0.dtd"
   xmlns:xlink="http://www.w3.org/1999/xlink"
   xmlns="http://www.w3.org/2000/svg"
   xmlns:svg="http://www.w3.org/2000/svg"><sodipodi:namedview
     id="namedview129341"
     pagecolor="#ffffff"
     bordercolor="#000000"
     borderopacity="0.25"
     inkscape:showpageshadow="2"
     inkscape:pageopacity="0.0"
     inkscape:pagecheckerboard="0"
     inkscape:deskcolor="#d1d1d1"
     inkscape:document-units="in"
     showgrid="false"
     inkscape:zoom="0.13519447"
     inkscape:cx="2082.1858"
     inkscape:cy="968.97454"
     inkscape:window-width="1536"
     inkscape:window-height="801"
     inkscape:window-x="-8"
     inkscape:window-y="-8"
     inkscape:window-maximized="1"
     inkscape:current-layer="svg129339" /><defs
     id="defs129319"><linearGradient
       id="linearGradient133131"
       inkscape:swatch="solid"><stop
         style="stop-color:#000000;stop-opacity:1;"
         offset="0"
         id="stop133129" /></linearGradient><mask
       id="Cp_1"><rect
         x="296"
         y="49"
         width="2194"
         height="1368"
         fill="white"
         id="rect129316" /></mask><mask
       maskUnits="userSpaceOnUse"
       id="mask130590"><g
         id="g130594"
         transform="matrix(0.8136012,0,0,0.95232517,80.432317,89.499363)"><rect
           x="56.007393"
           y="35.177731"
           width="2696.6528"
           height="1438.5842"
           fill="#ffffff"
           id="rect130592"
           style="stroke-width:1.13606" /></g></mask><mask
       maskUnits="userSpaceOnUse"
       id="mask130596"><g
         id="g130600"
         transform="matrix(0.8136012,0,0,0.95232517,80.432317,89.499363)"><rect
           x="56.007393"
           y="35.177731"
           width="2696.6528"
           height="1438.5842"
           fill="#ffffff"
           id="rect130598"
           style="stroke-width:1.13606" /></g></mask><mask
       id="Cp_1-6"><rect
         x="126"
         y="123"
         width="2194"
         height="1370"
         fill="white"
         id="rect131706" /></mask><linearGradient
       inkscape:collect="always"
       xlink:href="#linearGradient133131"
       id="linearGradient133133"
       x1="709.66308"
       y1="414.21812"
       x2="1039.6688"
       y2="414.21812"
       gradientUnits="userSpaceOnUse"
       gradientTransform="translate(247.97836,48.921174)" /><linearGradient
       inkscape:collect="always"
       xlink:href="#linearGradient133131"
       id="linearGradient133137"
       gradientUnits="userSpaceOnUse"
       gradientTransform="matrix(0.52322394,0,0,0.53852275,1213.6411,376.29289)"
       x1="709.66308"
       y1="414.21812"
       x2="1039.6688"
       y2="414.21812" /></defs><g
     id="g133159"
     transform="matrix(1.2322368,0,0,1.2322368,-389.31444,-160.54506)"><g
       id="g132102"
       transform="matrix(0.67776431,0,0,0.67776431,324.05001,327.26952)"><g
         mask="url(#Cp_1)"
         id="g129325"><rect
           x="0"
           y="0"
           width="2567"
           height="1692"
           visibility="hidden"
           fill="none"
           opacity="0"
           id="rect129321" /><polyline
           points="298,229 306,228 314,227 323,226 331,225 339,224 347,222 355,221 364,219 372,218 380,215 388,214 396,212 405,210 413,207 421,205 429,202 437,200 446,197 454,195 462,193 470,191 478,189 487,189 495,188 503,190 511,191 519,193 527,195 536,198 544,202 552,207 560,213 568,220 576,225 585,229 593,232 601,235 609,236 617,237 625,234 634,231 642,227 650,224 658,222 666,220 674,219 683,218 691,217 699,214 707,209 715,205 723,201 732,198 740,195 748,194 756,192 764,193 772,194 780,196 789,200 797,207 805,218 813,234 821,249 829,260 838,262 846,268 854,272 862,273 870,282 878,298 886,320 895,351 903,382 911,418 919,443 927,465 935,479 943,494 952,505 960,520 968,536 976,556 984,576 992,593 1000,601 1008,606 1017,604 1025,602 1033,594 1041,588 1049,582 1057,583 1065,585 1073,589 1082,589 1090,590 1098,584 1106,579 1114,572 1122,570 1130,564 1138,563 1147,559 1155,554 1163,541 1171,525 1179,505 1187,487 1195,467 1203,451 1212,437 1220,424 1228,411 1236,399 1244,388 1252,380 1260,372 1268,368 1276,363 1285,363 1293,365 1301,373 1309,383 1317,398 1325,405 1333,405 1341,405 1349,409 1358,415 1366,422 1374,427 1382,433 1390,437 1398,442 1406,448 1414,454 1422,457 1431,460 1439,461 1447,463 1455,463 1463,463 1471,463 1479,463 1487,463 1495,467 1503,465 1512,462 1520,455 1528,447 1536,441 1544,438 1552,437 1560,442 1568,450 1576,461 1584,481 1593,514 1601,556 1609,610 1617,662 1625,706 1633,738 1641,759 1649,767 1657,767 1665,760 1673,747 1682,731 1690,714 1698,697 1706,680 1714,664 1722,647 1730,633 1738,620 1746,610 1754,602 1763,598 1771,600 1779,607 1787,621 1795,641 1803,669 1811,701 1819,741 1827,781 1835,820 1843,852 1851,885 1860,916 1868,944 1876,964 1884,980 1892,991 1900,1001 1908,1003 1916,997 1924,983 1932,966 1940,947 1949,927 1957,910 1965,895 1973,882 1981,869 1989,858 1997,847 2005,836 2013,823 2021,810 2029,798 2038,786 2046,775 2054,766 2062,759 2070,751 2078,748 2086,746 2094,747 2102,754 2110,771 2118,801 2127,845 2135,897 2143,954 2151,991 2159,994 2167,974 2175,954 2183,948 2191,955 2199,959 2207,978 2215,998 2224,1016 2232,1031 2240,1047 2248,1056 2256,1056 2264,1050 2272,1046 2280,1040 2288,1031 2296,1028 2304,1019 2313,1006 2321,1001 2329,995 2337,987 2345,980 2353,985 2361,992 2369,999 2377,1013 2385,1036 2393,1065 2402,1098 2410,1130 2418,1163 2426,1197 2434,1237 2442,1277 2450,1310 2458,1309 2466,1313 2474,1307 2482,1292 2491,1278"
           style="stroke:#00a0ff;stroke-width:29;stroke-linecap:round;stroke-linejoin:round"
           fill="none"
           id="polyline129323" /></g><polyline
         points="296,1416 2489,1416"
         style="stroke:#000000;stroke-width:13;stroke-linecap:square;stroke-linejoin:round"
         fill="none"
         id="polyline129327" /><polyline
         points="296,1416 296,49"
         style="stroke:#000000;stroke-width:13;stroke-linecap:square;stroke-linejoin:round"
         fill="none"
         id="polyline129329" /><text
         x="0"
         dominant-baseline="auto"
         y="0"
         fill="#000000"
         font-family="Arial, 'MS PGothic', SimSun"
         font-size="200px"
         font-weight="400"
         transform="matrix(0,-1,0.999999,0,196,1243)"
         id="text129333"><tspan
           x="0"
           id="tspan129331">Intensiteetti</tspan></text><text
         x="849"
         dominant-baseline="auto"
         y="1650"
         fill="#000000"
         font-family="Arial, 'MS PGothic', SimSun"
         font-size="200px"
         font-weight="400"
         id="text129337"><tspan
           x="849"
           id="tspan129335">Aallonpituus</tspan></text><rect
         x="0"
         y="0"
         width="2445"
         height="1616"
         visibility="hidden"
         fill="none"
         opacity="0"
         id="rect130206"
         transform="matrix(1.2291034,0,0,1.0500615,-98.859634,-93.979835)"
         mask="url(#mask130596)" /><g
         mask="url(#Cp_1-6)"
         id="g131715"
         transform="matrix(1.2445988,0,0,1.0691502,-126.96353,-114.63377)"><rect
           x="0"
           y="0"
           width="2445"
           height="1616"
           visibility="hidden"
           fill="none"
           opacity="0"
           id="rect131711" /><polyline
           points="354,287 361,286 367,285 374,284 380,283 387,282 393,281 400,280 406,277 413,275 419,274 426,272 432,270 439,269 445,267 452,266 458,264 465,263 471,262 477,263 484,265 490,273 497,287 503,302 510,297 516,281 523,272 529,271 536,273 542,277 548,281 555,284 561,285 568,283 574,279 581,275 587,272 594,271 600,269 607,269 613,267 619,266 626,263 632,262 639,260 645,258 652,257 658,256 665,255 671,254 677,252 684,250 690,248 697,246 703,244 710,244 716,243 722,243 729,243 735,244 742,244 748,247 755,254 761,266 768,278 774,289 780,291 787,292 793,295 800,299 806,298 813,304 819,308 825,318 832,328 838,341 845,350 851,359 857,362 864,364 870,365 877,366 883,369 890,374 896,378 902,384 909,387 915,390 922,389 928,389 935,386 941,383 947,378 954,377 960,375 967,379 973,379 979,380 986,379 992,379 999,375 1005,374 1012,371 1018,372 1024,372 1031,373 1037,371 1044,370 1050,366 1056,367 1063,371 1069,372 1076,374 1082,383 1088,401 1095,449 1101,512 1108,593 1114,664 1120,691 1127,646 1133,597 1140,564 1146,536 1152,503 1159,490 1165,502 1172,512 1178,508 1184,507 1191,507 1197,504 1204,496 1210,481 1216,466 1223,460 1229,455 1236,452 1242,450 1248,448 1255,448 1261,448 1268,448 1274,448 1280,448 1287,447 1293,445 1300,446 1306,449 1312,449 1319,440 1325,431 1332,422 1338,419 1344,416 1351,417 1357,420 1364,423 1370,422 1376,429 1383,445 1389,473 1396,503 1402,526 1408,536 1415,540 1421,541 1427,541 1434,541 1440,545 1447,550 1453,556 1459,550 1466,527 1472,505 1479,491 1485,482 1491,475 1498,471 1504,467 1511,462 1517,459 1523,458 1530,463 1536,472 1543,484 1549,496 1555,512 1562,529 1568,546 1574,562 1581,580 1587,603 1594,632 1600,657 1606,675 1613,678 1619,674 1626,679 1632,705 1638,742 1645,791 1651,829 1657,878 1664,899 1670,843 1677,788 1683,793 1689,831 1696,814 1702,746 1709,722 1715,750 1721,768 1728,732 1734,688 1741,677 1747,682 1753,696 1760,731 1766,795 1772,877 1779,948 1785,1045 1792,1136 1798,1178 1804,1199 1811,1181 1817,1147 1824,1127 1830,1099 1836,1072 1843,1057 1849,1064 1856,1075 1862,1092 1868,1102 1875,1115 1881,1145 1887,1181 1894,1192 1900,1180 1907,1160 1913,1148 1919,1149 1926,1147 1932,1139 1939,1120 1945,1095 1951,1086 1958,1100 1964,1124 1971,1108 1977,1070 1983,1059 1990,1083 1996,1116 2002,1141 2009,1182 2015,1266 2022,1366 2028,1373 2034,1289 2041,1217 2047,1174 2054,1157 2060,1142 2066,1131 2073,1134 2079,1140 2086,1144"
           style="stroke:#fa3c3c;stroke-width:20;stroke-linecap:round;stroke-linejoin:round"
           fill="none"
           id="polyline131713" /></g></g><text
       xml:space="preserve"
       style="font-size:131.641px;font-family:sans-serif;-inkscape-font-specification:sans-serif;text-align:center;text-anchor:middle;fill:#000000;stroke-width:1.16799;stroke-dasharray:4.67195, 1.16799;stroke-opacity:0.890196"
       x="1567.7697"
       y="278.06418"
       id="text132158"
       transform="scale(0.98731294,1.0128501)"><tspan
         sodipodi:role="line"
         id="tspan132156"
         x="1567.7697"
         y="278.06418"
         style="font-size:131.641px;stroke-width:1.16799">Puuvilla</tspan></text><text
       xml:space="preserve"
       style="font-size:131.641px;font-family:sans-serif;-inkscape-font-specification:sans-serif;text-align:center;text-anchor:middle;fill:#000000;stroke-width:1.16799;stroke-dasharray:4.67195, 1.16799;stroke-opacity:0.890196"
       x="2100.3899"
       y="474.40897"
       id="text132314"
       transform="scale(0.98731294,1.0128501)"><tspan
         sodipodi:role="line"
         id="tspan132312"
         x="2100.3899"
         y="474.40897"
         style="font-size:131.641px;stroke-width:1.16799">Polyesteri</tspan></text><path
       style="opacity:1;fill:#000000;stroke:url(#linearGradient133133);stroke-width:7.68;stroke-dasharray:none;stroke-dashoffset:0;stroke-opacity:1"
       d="M 958.06657,633.26461 C 1287.2221,293.014 1287.2221,293.014 1287.2221,293.014"
       id="path132380" /><path
       style="opacity:1;fill:#000000;stroke:url(#linearGradient133137);stroke-width:7.68;stroke-dasharray:none;stroke-dashoffset:0;stroke-opacity:1"
       d="m 1585.1763,690.97513 c 172.222,-183.23269 172.222,-183.23269 172.222,-183.23269"
       id="path133135" /></g></svg>
